<svg width="25" height="24" viewBox="0 0 25 24" fill="none" xmlns="http://www.w3.org/2000/svg">
<path d="M9.79053 22.581C14.9215 22.581 19.0811 18.4215 19.0811 13.2905C19.0811 8.15945 14.9215 3.99994 9.79053 3.99994C4.65951 3.99994 0.5 8.15945 0.5 13.2905C0.5 18.4215 4.65951 22.581 9.79053 22.581Z" fill="#2E99DC"/>
<path d="M9.89557 20.4714L9.77773 20.2706C7.97773 17.2037 3.19446 10.6954 3.14615 10.6301L3.07715 10.5363L4.70678 8.92579L9.86531 12.5278C13.1133 8.31316 16.1434 5.41832 18.1199 3.72784C20.282 1.87863 21.6895 1.02732 21.7037 1.01916L21.7357 1H24.5L24.2359 1.23516C17.4449 7.2839 10.0842 20.1399 10.0109 20.2691L9.89557 20.4714Z" fill="white"/>
</svg>
