<svg width="31" height="30" viewBox="0 0 31 30" fill="none" xmlns="http://www.w3.org/2000/svg">
<path d="M17.5522 18.5157C17.685 17.6877 17.8869 16.8721 18.1555 16.0777C18.2554 15.7878 13.4112 15.7879 13.511 16.0781C13.7797 16.8724 13.9816 17.6878 14.1146 18.5156C13.9958 19.1806 13.7977 19.829 13.5245 20.4469C13.3933 20.7425 18.2736 20.7422 18.1417 20.4474C17.8689 19.8293 17.671 19.1808 17.5522 18.5157Z" fill="#FFA000"/>
<path d="M26.8539 4.21875H20.5208C20.2704 4.21875 19.7261 15.406 19.9468 15.4568C20.2081 15.5086 20.4742 15.5329 20.7406 15.5292C25.2421 15.2727 27.2468 11.2304 28.0167 5.67352C28.0429 5.50058 28.033 5.3241 27.9877 5.15517C27.9424 4.98623 27.8626 4.82849 27.7534 4.69186C27.6442 4.55524 27.508 4.44268 27.3532 4.36126C27.1984 4.27984 27.0284 4.23132 26.8539 4.21875ZM25.6569 7.18594C24.7666 13.1287 21.1434 13.1969 20.9896 13.1969C20.7376 13.2017 20.7305 6.09375 20.9896 6.09375H24.7757C24.9078 6.10106 25.0368 6.13601 25.1545 6.19634C25.2723 6.25667 25.376 6.34104 25.4591 6.44398C25.5421 6.54693 25.6026 6.66616 25.6367 6.79396C25.6708 6.92177 25.6777 7.05531 25.6569 7.18594Z" fill="#FFA000"/>
<path d="M11.1531 4.21875H4.81996C4.64556 4.23143 4.47567 4.28003 4.32094 4.36148C4.16621 4.44294 4.02999 4.55551 3.92083 4.69211C3.81167 4.82872 3.73193 4.98641 3.6866 5.1553C3.64128 5.32418 3.63136 5.50061 3.65746 5.67352C4.42936 11.2329 6.42965 15.2699 10.9336 15.5292C11.2001 15.5328 11.4662 15.5086 11.7276 15.4568C11.9478 15.406 11.4036 4.21875 11.1531 4.21875ZM10.6844 13.1969C10.5306 13.1969 6.90736 13.1287 6.01725 7.18552C5.99646 7.05494 6.00332 6.92146 6.03737 6.79371C6.07143 6.66595 6.13192 6.54677 6.21493 6.44386C6.29795 6.34095 6.40164 6.25662 6.5193 6.19631C6.63696 6.136 6.76597 6.10106 6.89798 6.09375H10.6844C10.9432 6.09375 10.9432 13.1969 10.6844 13.1969Z" fill="#FFA000"/>
<path d="M20.2306 25.6892L19.4989 22.0312H12.1677L11.4364 25.6892C11.4085 25.827 20.2583 25.827 20.2306 25.6892Z" fill="#67676B"/>
<path d="M20.0521 25.3125H11.6146C11.0968 25.3125 10.6771 25.7322 10.6771 26.25V28.125C10.6771 28.6428 11.0968 29.0625 11.6146 29.0625H20.0521C20.5698 29.0625 20.9896 28.6428 20.9896 28.125V26.25C20.9896 25.7322 20.5698 25.3125 20.0521 25.3125Z" fill="#46464E"/>
<path d="M18.8802 20.1562H12.3177C11.6705 20.1562 11.1458 20.6809 11.1458 21.3281V21.7969C11.1458 22.4441 11.6705 22.9688 12.3177 22.9688H18.8802C19.5274 22.9688 20.0521 22.4441 20.0521 21.7969V21.3281C20.0521 20.6809 19.5274 20.1562 18.8802 20.1562Z" fill="#46464E"/>
<path d="M22.3958 2.8125H9.27081V10.3125C9.63227 19.0207 22.0376 19.014 22.3958 10.3125V2.8125Z" fill="#FFC107"/>
<path d="M15.8333 5.625C10.5213 5.79178 10.52 13.4262 15.8333 13.5938C21.1451 13.4268 21.1464 5.79272 15.8333 5.625Z" fill="#FFA000"/>
<path d="M15.9658 11.5571V12.1196H15.4898V11.5571C15.1872 11.557 14.8935 11.4546 14.6564 11.2667C14.4193 11.0787 14.2527 10.8162 14.1835 10.5216L15.0018 10.3344C15.0424 10.5013 15.1432 10.6473 15.2849 10.7445C15.4266 10.8416 15.5991 10.883 15.7695 10.8608C16.188 10.9137 16.597 10.5092 16.2396 10.2061C15.8595 10.0226 14.7553 9.86605 14.6253 9.56661C14.4986 9.39729 14.42 9.19689 14.3978 8.9866C14.3757 8.7763 14.4107 8.56392 14.4992 8.37189C14.5878 8.17986 14.7266 8.01533 14.9009 7.89567C15.0753 7.776 15.2787 7.70567 15.4898 7.69208V7.22192H15.9658V7.68599C16.2323 7.69015 16.491 7.77674 16.7063 7.93387C16.9216 8.091 17.0829 8.31095 17.1682 8.56349L16.4182 8.81342C16.3126 8.15605 14.8589 8.24947 15.3467 8.93708C15.8901 9.23811 16.7668 9.1438 17.0888 9.71896C17.198 9.91 17.254 10.1269 17.2509 10.347C17.2477 10.567 17.1855 10.7822 17.0708 10.97C16.956 11.1579 16.7929 11.3114 16.5986 11.4147C16.4042 11.5179 16.1857 11.5671 15.9658 11.5571Z" fill="#FFD54F"/>
<path d="M21.9271 0.9375H9.73956C9.3666 0.9375 9.00892 1.08566 8.74519 1.34938C8.48147 1.6131 8.33331 1.97079 8.33331 2.34375C8.33331 2.71671 8.48147 3.0744 8.74519 3.33812C9.00892 3.60184 9.3666 3.75 9.73956 3.75H21.9271C22.3 3.75 22.6577 3.60184 22.9214 3.33812C23.1852 3.0744 23.3333 2.71671 23.3333 2.34375C23.3333 1.97079 23.1852 1.6131 22.9214 1.34938C22.6577 1.08566 22.3 0.9375 21.9271 0.9375Z" fill="#FFA000"/>
</svg>
