<svg width="42" height="42" viewBox="0 0 42 42" fill="none" xmlns="http://www.w3.org/2000/svg">
<path d="M-1.38419e-06 10.3335L-4.51691e-07 31.6665C-2.02229e-07 37.3735 4.62645 42 10.3335 42L31.6665 42C37.3735 42 42 37.3735 42 31.6665L42 10.3335C42 4.62645 37.3735 -1.63365e-06 31.6665 -1.38419e-06L10.3335 -4.51691e-07C4.62645 -2.02229e-07 -1.63365e-06 4.62645 -1.38419e-06 10.3335Z" fill="#2B526F"/>
<path fill-rule="evenodd" clip-rule="evenodd" d="M29.7216 28.3277L25.652 24.9431L25.652 34.5293L16.4038 34.5293L16.4038 24.9439L12.2875 28.3286L12.2875 23.1893L21.0049 16.0157L29.7216 23.1893L29.7216 28.3277Z" fill="#408FD4"/>
<path fill-rule="evenodd" clip-rule="evenodd" d="M29.7216 19.7759L21.0049 12.6022L12.2875 19.7759L12.2875 14.6366L21.0049 7.46299L29.7216 14.6366L29.7216 19.7759Z" fill="#408FD4"/>
</svg>
