<svg width="20" height="20" viewBox="0 0 20 20" fill="none" xmlns="http://www.w3.org/2000/svg">
<g clip-path="url(#clip0_7364_2853)">
<path d="M3.47148 0.985257L9.34183 3.57225C9.75999 3.75721 10.2403 3.7576 10.6592 3.57186L16.5288 0.985258C18.6596 0.0465862 20.7624 2.35373 19.6362 4.38717L12.1274 17.9722C11.2034 19.649 8.79734 19.65 7.87327 17.9726L2.80347 8.79635C2.69699 8.60401 2.76695 8.3619 2.95929 8.2558C3.15203 8.14893 3.39413 8.21967 3.49984 8.41162L8.57007 17.5883C9.1914 18.7157 10.8085 18.7161 11.4306 17.5879L18.9398 4.00205C19.6982 2.63217 18.2804 1.08225 16.8498 1.7135L10.981 4.29971C10.3569 4.57639 9.64265 4.576 9.02007 4.3001L3.1505 1.7135C1.72019 1.08334 0.301441 2.63119 1.06093 4.0024L2.35812 6.35428C2.46421 6.54701 2.39425 6.78912 2.20191 6.89522C2.00878 7.00053 1.76706 6.93096 1.66097 6.73901L0.364175 4.38752C-0.764223 2.34947 1.34511 0.0481472 3.47148 0.985257Z" fill="white"/>
</g>
<defs>
<clipPath id="clip0_7364_2853">
<rect width="20" height="20" fill="white" transform="matrix(-1 -8.74228e-08 -8.74228e-08 1 20 0)"/>
</clipPath>
</defs>
</svg>
