<svg width="26" height="26" viewBox="0 0 26 26" fill="none" xmlns="http://www.w3.org/2000/svg">
<path d="M3.65851 5.91519L12.4227 1.08362C12.7558 0.900031 13.1314 0.807348 13.5116 0.814892C13.8919 0.822436 14.2634 0.929941 14.589 1.1266L23.1547 6.30198C23.3182 6.40089 23.4679 6.521 23.6 6.65918L13.2829 12.3447L3.19942 6.25336C3.33689 6.1209 3.49125 6.0072 3.65851 5.91519ZM12.1805 6.85033C12.5508 7.04838 12.9628 7.15597 13.3827 7.1643C13.8026 7.17263 14.2185 7.08147 14.5964 6.89826C15.274 6.52488 15.2935 5.89681 14.6356 5.49693C14.2639 5.29882 13.8507 5.19122 13.4296 5.18286C13.0085 5.17451 12.5913 5.26564 12.2121 5.44885C12.0649 5.49564 11.936 5.58725 11.8435 5.71086C11.7509 5.83447 11.6993 5.98392 11.6958 6.1383C11.6923 6.29269 11.7372 6.44431 11.8241 6.57197C11.911 6.69963 12.0356 6.79695 12.1805 6.85033Z" fill="#408FD4"/>
<path d="M24.1279 7.60421C24.1795 7.79794 24.204 7.9979 24.2006 8.19835L24.0021 18.2042C23.9943 18.5843 23.8868 18.9556 23.6901 19.2809C23.4935 19.6063 23.2147 19.8741 22.8818 20.0576L14.1176 24.8881C13.946 24.9826 13.7623 25.0531 13.5716 25.0978L13.8059 13.2918L24.1279 7.60421ZM21.6508 13.6988C21.9488 13.514 22.1987 13.2611 22.38 12.961C22.5613 12.6609 22.6689 12.322 22.6938 11.9723C22.7065 11.3321 22.2567 11.0653 21.6898 11.3775C21.3933 11.5621 21.1446 11.8142 20.964 12.1133C20.7834 12.4123 20.676 12.7498 20.6507 13.0982C20.6395 13.7426 21.0872 14.0083 21.6508 13.6988ZM19.1313 17.9429C19.4294 17.758 19.6793 17.5051 19.8606 17.2048C20.0419 16.9046 20.1495 16.5657 20.1744 16.2158C20.1871 15.5762 19.7378 15.3089 19.1709 15.6216C18.8741 15.806 18.6252 16.0581 18.4445 16.3571C18.2638 16.6562 18.1564 16.9938 18.1312 17.3423C18.1217 17.9862 18.5693 18.253 19.1313 17.9429ZM16.6135 22.1865C16.9115 22.0017 17.1614 21.7488 17.3427 21.4487C17.524 21.1486 17.6316 20.8097 17.6565 20.46C17.6692 19.8198 17.22 19.553 16.653 19.8652C16.3563 20.0497 16.1075 20.3018 15.9268 20.6008C15.7461 20.8999 15.6387 21.2374 15.6134 21.5859C15.6038 22.2298 16.052 22.4972 16.6151 22.1865L16.6135 22.1865Z" fill="#408FD4"/>
<path d="M2.63443 7.17779L12.7227 13.2719L12.4885 25.0779C12.2997 25.0257 12.119 24.948 11.9513 24.8467L3.38561 19.6708C3.06008 19.4742 2.79205 19.1953 2.60845 18.8622C2.42486 18.5291 2.33217 18.1536 2.33971 17.7734L2.5382 7.76858C2.54279 7.56815 2.57518 7.36932 2.63443 7.17779ZM9.33085 13.7269C8.77678 13.3908 8.31889 13.6412 8.30449 14.2851C8.31558 14.6352 8.40953 14.9776 8.57861 15.2843C8.7477 15.591 8.98711 15.8532 9.27719 16.0495C9.82753 16.3822 10.2891 16.1351 10.304 15.4956C10.2927 15.1448 10.1986 14.8016 10.0292 14.4942C9.85991 14.1868 9.62022 13.9239 9.32977 13.7268L9.33085 13.7269ZM9.17312 20.6942C9.72347 21.0264 10.1851 20.7798 10.1994 20.1397C10.1881 19.7893 10.0939 19.4466 9.92466 19.1395C9.75542 18.8325 9.51589 18.5699 9.22567 18.3732C8.6716 18.0371 8.21371 18.2876 8.19876 18.9314C8.21065 19.2812 8.30501 19.6231 8.47414 19.9294C8.64328 20.2358 8.88241 20.4978 9.17203 20.6942L9.17312 20.6942ZM5.3328 11.312C4.77873 10.9759 4.32084 11.2263 4.3059 11.8702C4.31749 12.22 4.41179 12.5622 4.58105 12.8686C4.75031 13.1749 4.98973 13.4369 5.27971 13.6329C5.83059 13.9657 6.28846 13.7164 6.30277 13.0768C6.29193 12.7269 6.19838 12.3846 6.02979 12.0779C5.86119 11.7711 5.62234 11.5086 5.3328 11.312ZM5.17452 18.2793C5.72486 18.612 6.18273 18.3627 6.19759 17.7231C6.18682 17.3732 6.09324 17.0308 5.92454 16.724C5.75584 16.4172 5.51681 16.1548 5.22707 15.9583C4.673 15.6222 4.21511 15.8726 4.20071 16.5165C4.21218 16.8664 4.30642 17.2086 4.47569 17.515C4.64496 17.8214 4.88445 18.0833 5.17452 18.2793Z" fill="#408FD4"/>
</svg>
