<svg width="26" height="26" viewBox="0 0 26 26" fill="none" xmlns="http://www.w3.org/2000/svg">
<path d="M24.1458 1.32482H22.5486V1.08725C22.5486 0.935546 22.4256 0.812576 22.2739 0.812576H3.35883C3.20708 0.812576 3.08416 0.935546 3.08416 1.08725V1.32482H1.4869C1.1146 1.32482 0.812592 1.62669 0.812592 1.99903C0.812592 2.37138 1.1146 2.67325 1.4869 2.67325H3.08416V2.91082C3.08416 3.06252 3.20708 3.18549 3.35883 3.18549H22.2739C22.4256 3.18549 22.5486 3.06252 22.5486 2.91082V2.67325H24.1458C24.5181 2.67325 24.8199 2.37138 24.8199 1.99903C24.8199 1.62669 24.5181 1.32482 24.1458 1.32482Z" fill="#408FD4"/>
<path d="M4.52519 21.0742L12.8164 25.1874L21.1077 21.0742V3.94704H4.52519V21.0742ZM13.7457 11.587L14.4161 10.2274L15.0902 11.587L16.5869 11.8041L15.5014 12.8629L15.7567 14.3597L14.4161 13.6513L13.0716 14.3559L13.3306 12.8629L12.2452 11.8041L13.7457 11.587ZM10.2038 8.4526C9.64016 9.37806 9.31639 10.4635 9.31639 11.6289C9.31639 15.0224 12.07 17.7722 15.4596 17.7722C16.5716 17.7722 17.6153 17.4789 18.514 16.9571C17.4438 18.7319 15.4901 19.9201 13.262 19.9201C9.86852 19.9201 7.11884 17.1704 7.11884 13.777C7.11884 11.4995 8.35663 9.50758 10.2038 8.4526Z" fill="#408FD4"/>
</svg>
