<svg width="26" height="26" viewBox="0 0 26 26" fill="none" xmlns="http://www.w3.org/2000/svg">
<g clip-path="url(#clip0_7364_2042)">
<path d="M23.5377 4.20527H12.7242C11.6612 4.20527 10.7915 5.07016 10.7915 6.13799V23.4116C10.7915 24.4794 11.6612 25.3443 12.7242 25.3443H23.5377C24.6055 25.3443 25.4704 24.4794 25.4704 23.4116V6.13799C25.4704 5.07016 24.6055 4.20527 23.5377 4.20527ZM12.1598 7.73867L14.1745 5.71975L16.1934 7.73867L14.1745 9.75328L12.1598 7.73867ZM14.8727 14.7783L18.1276 11.5165L21.3892 14.7783L18.1276 18.0331L14.8727 14.7783ZM22.0832 23.8298L20.0685 21.8152L22.0832 19.7963L24.1021 21.8152L22.0832 23.8298Z" fill="#408FD4"/>
<path d="M10.0284 6.1368C10.0284 4.64947 11.2366 3.44122 12.724 3.44122H14.5134L13.4275 1.60593C12.8808 0.684467 11.6954 0.382394 10.7778 0.925328L1.47897 6.43887C0.561358 6.98181 0.255457 8.16709 0.798369 9.08475L9.60397 23.9468C9.78749 24.2527 10.0399 24.4936 10.3305 24.6542C10.1393 24.2833 10.0284 23.8589 10.0284 23.4115V6.1368Z" fill="#408FD4"/>
</g>
<defs>
<clipPath id="clip0_7364_2042">
<rect width="26" height="26" fill="white"/>
</clipPath>
</defs>
</svg>
