<svg width="26" height="26" viewBox="0 0 26 26" fill="none" xmlns="http://www.w3.org/2000/svg">
<path d="M25.1772 8.68218C25.1377 8.83644 24.9796 8.95213 24.7821 8.95213L23.3199 8.99069L23.2804 10.4176C23.2804 10.5718 23.1618 10.7261 23.0038 10.7646C22.8457 10.8032 22.6481 10.7261 22.5691 10.5718L21.8183 9.33777L20.5537 10.0319C20.3956 10.109 20.1981 10.0705 20.0795 9.95479C19.961 9.8391 19.9214 9.64628 20.0005 9.49202L20.7118 8.25798L19.4472 7.52527C19.2892 7.44814 19.2101 7.25532 19.2892 7.10106C19.3287 6.94681 19.4868 6.83112 19.6843 6.83112L21.1465 6.79255L21.186 5.36569C21.186 5.36569 21.186 5.36569 21.186 5.32713C20.1981 3.51463 18.2617 2.39628 16.1278 2.39628H14.2705C12.2946 2.39628 10.7139 3.93883 10.7139 5.86702V7.02394H13.8753C14.1124 7.02394 14.2705 7.17819 14.2705 7.40957V8.33511H6.36706V7.40957C6.36706 7.17819 6.52513 7.02394 6.76223 7.02394H9.9236V5.86702C9.9236 3.51463 11.8599 1.625 14.2705 1.625H16.1278C18.7359 1.625 21.107 3.16755 22.1344 5.51995L22.6481 6.36835L23.9127 5.6742C24.0707 5.59707 24.2683 5.63564 24.3869 5.75133C24.5054 5.86702 24.5449 6.05984 24.4659 6.2141L23.7546 7.44814L25.0192 8.18085C25.1377 8.33511 25.2167 8.52793 25.1772 8.68218ZM14.2705 9.14495H6.36706C3.56134 10.5332 1.625 13.387 1.625 16.7035C1.625 21.4082 5.49768 25.1875 10.3188 25.1875C15.1399 25.1875 19.0125 21.4082 19.0125 16.7035C19.0125 13.4255 17.0762 10.5718 14.2705 9.14495Z" fill="#408FD4"/>
</svg>
