<svg width="20" height="20" viewBox="0 0 20 20" fill="none" xmlns="http://www.w3.org/2000/svg">
<g clip-path="url(#clip0_7364_2059)">
<path d="M3.47154 19.0146L9.34189 16.4276C9.76006 16.2427 10.2404 16.2423 10.6593 16.428L16.5289 19.0146C18.6597 19.9533 20.7625 17.6461 19.6362 15.6127L12.1275 2.02763C11.2034 0.350873 8.7974 0.349856 7.87334 2.02724L2.80353 11.2035C2.69705 11.3959 2.76701 11.638 2.95935 11.7441C3.15209 11.851 3.39419 11.7802 3.4999 11.5883L8.57013 2.41161C9.19146 1.28415 10.8086 1.2838 11.4307 2.41201L18.9398 15.9978C19.6983 17.3677 18.2804 18.9176 16.8499 18.2864L10.9811 15.7002C10.357 15.4235 9.64271 15.4239 9.02013 15.6998L3.15056 18.2864C1.72025 18.9165 0.301502 17.3687 1.06099 15.9975L2.35818 13.6456C2.46427 13.4529 2.39431 13.2108 2.20197 13.1047C2.00884 12.9993 1.76713 13.0689 1.66103 13.2609L0.364237 15.6124C-0.764162 17.6504 1.34517 19.9517 3.47154 19.0146Z" fill="#2E99DC"/>
</g>
<defs>
<clipPath id="clip0_7364_2059">
<rect width="20" height="20" fill="white" transform="translate(20 20) rotate(180)"/>
</clipPath>
</defs>
</svg>
