<svg width="20" height="20" viewBox="0 0 20 20" fill="none" xmlns="http://www.w3.org/2000/svg">
<g clip-path="url(#clip0_7364_3439)">
<path d="M3.47151 0.985392L9.34186 3.57238C9.76002 3.75735 10.2403 3.75774 10.6592 3.57199L16.5289 0.985393C18.6596 0.0467216 20.7624 2.35387 19.6362 4.38731L12.1274 17.9724C11.2034 19.6491 8.79737 19.6502 7.8733 17.9728L2.8035 8.79648C2.69702 8.60414 2.76698 8.36203 2.95932 8.25594C3.15206 8.14906 3.39416 8.21981 3.49987 8.41176L8.5701 17.5884C9.19143 18.7159 10.8086 18.7162 11.4306 17.588L18.9398 4.00219C19.6983 2.63231 18.2804 1.08239 16.8498 1.71364L10.981 4.29985C10.3569 4.57653 9.64268 4.57613 9.0201 4.30024L3.15053 1.71363C1.72022 1.08348 0.301472 2.63133 1.06096 4.00254L2.35815 6.35441C2.46424 6.54715 2.39428 6.78926 2.20194 6.89535C2.00881 7.00066 1.7671 6.93109 1.661 6.73914L0.364206 4.38766C-0.764193 2.34961 1.34514 0.0482826 3.47151 0.985392Z" fill="#2E99DC"/>
</g>
<defs>
<clipPath id="clip0_7364_3439">
<rect width="20" height="20" fill="white" transform="matrix(-1 -8.74228e-08 -8.74228e-08 1 20 1.90735e-06)"/>
</clipPath>
</defs>
</svg>
