<svg width="26" height="26" viewBox="0 0 26 26" fill="none" xmlns="http://www.w3.org/2000/svg">
<path d="M17.4965 12.0564C18.1962 12.0564 18.9533 11.7467 19.6911 11.1617C19.7141 11.1426 19.7408 11.1235 19.7639 11.1005C19.351 10.3129 19.1215 9.42582 19.1292 8.4164C19.6071 8.19463 19.9359 7.71289 19.9359 7.15082C19.9359 6.37846 19.3127 5.75524 18.5441 5.75524C17.7717 5.75524 17.1448 6.37846 17.1448 7.15082C17.1448 7.64787 17.4047 8.08376 17.7947 8.32847C17.4889 9.25376 16.7241 10.1638 15.6803 11.0546C15.6841 11.0699 15.6956 11.0814 15.7033 11.0929C16.143 11.7047 16.7508 12.0564 17.4965 12.0564Z" fill="#408FD4"/>
<path d="M6.87473 8.4164C6.88239 9.39905 6.66442 10.2632 6.27059 11.0355C6.3012 11.0623 6.32799 11.089 6.35852 11.112C7.11557 11.7314 7.89559 12.0602 8.61446 12.0602C8.77884 12.0602 8.93931 12.0411 9.0924 12.0067C9.59704 11.892 10.0253 11.6014 10.3731 11.1388C10.3771 11.1311 10.3847 11.1235 10.3884 11.1158C9.31027 10.1982 8.51887 9.26904 8.20531 8.32847C8.59532 8.08376 8.85529 7.64787 8.85529 7.15082C8.85529 6.37846 8.22818 5.75524 7.45592 5.75524C6.68738 5.75524 6.0641 6.37846 6.0641 7.15082C6.0641 7.71289 6.39679 8.19846 6.87473 8.4164Z" fill="#408FD4"/>
<path d="M23.7211 5.75524C22.8838 5.75524 22.207 6.43199 22.207 7.26934C22.207 7.69758 22.3829 8.08376 22.6697 8.36287C22.0502 9.78906 21.1595 10.9743 20.1653 11.762C19.1062 12.6032 17.9362 12.9894 16.8541 12.7523C16.1277 12.5879 15.5312 12.1635 15.0838 11.5402C14.518 10.7564 14.1853 9.66288 14.1433 8.41258C14.6326 8.06082 14.95 7.48346 14.95 6.83346C14.95 5.75524 14.0744 4.87964 12.9962 4.87964C11.9179 4.87964 11.0501 5.75524 11.0501 6.83346C11.0501 7.53317 11.4132 8.14495 11.9638 8.48905C11.9141 9.73553 11.5738 10.8252 10.9849 11.5976C10.5453 12.1864 9.96408 12.5955 9.26061 12.7523C8.15556 13.0008 6.95118 12.5841 5.87292 11.7008C4.89417 10.894 4.01857 9.70493 3.41059 8.27876C3.6476 8.01111 3.79295 7.65552 3.79295 7.26934C3.79295 6.43199 3.11235 5.75524 2.27502 5.75524C1.43768 5.75524 0.76474 6.43199 0.76474 7.26934C0.76474 7.96523 1.22737 8.55024 1.86204 8.72993L5.03559 18.1664H20.9606L24.1378 8.72611C24.7689 8.54641 25.2352 7.9614 25.2352 7.26934C25.2352 6.43199 24.5547 5.75524 23.7211 5.75524Z" fill="#408FD4"/>
<path d="M3.58302 18.9314H22.4166V21.1204H3.58302V18.9314Z" fill="#408FD4"/>
</svg>
